<?xml version="1.0" encoding="UTF-8" standalone="no"?>
<svg
   xmlns:osb="http://www.openswatchbook.org/uri/2009/osb"
   xmlns:dc="http://purl.org/dc/elements/1.1/"
   xmlns:cc="http://creativecommons.org/ns#"
   xmlns:rdf="http://www.w3.org/1999/02/22-rdf-syntax-ns#"
   xmlns:svg="http://www.w3.org/2000/svg"
   xmlns="http://www.w3.org/2000/svg"
   xmlns:sodipodi="http://sodipodi.sourceforge.net/DTD/sodipodi-0.dtd"
   xmlns:inkscape="http://www.inkscape.org/namespaces/inkscape"
   id="Layer_1"
   data-name="Layer 1"
   viewBox="0 0 128 128"
   version="1.1"
   sodipodi:docname="logo-rw.svg"
   inkscape:version="0.92.3 (2405546, 2018-03-11)">
  <metadata
     id="metadata13">
    <rdf:RDF>
      <cc:Work
         rdf:about="">
        <dc:format>image/svg+xml</dc:format>
        <dc:type
           rdf:resource="http://purl.org/dc/dcmitype/StillImage" />
        <dc:title>x</dc:title>
      </cc:Work>
    </rdf:RDF>
  </metadata>
  <sodipodi:namedview
     pagecolor="#ffffff"
     bordercolor="#666666"
     borderopacity="1"
     objecttolerance="10"
     gridtolerance="10"
     guidetolerance="10"
     inkscape:pageopacity="0"
     inkscape:pageshadow="2"
     inkscape:window-width="1920"
     inkscape:window-height="1017"
     id="namedview11"
     showgrid="false"
     inkscape:zoom="3.6875"
     inkscape:cx="1.2470355"
     inkscape:cy="47.632949"
     inkscape:window-x="-8"
     inkscape:window-y="-8"
     inkscape:window-maximized="1"
     inkscape:current-layer="Layer_1" />
  <defs
     id="defs4">
    <linearGradient
       id="linearGradient4538"
       osb:paint="solid">
      <stop
         style="stop-color:#000000;stop-opacity:1;"
         offset="0"
         id="stop4536" />
    </linearGradient>
    <style
       id="style2">.cls-1{fill:#2d3e50;}</style>
  </defs>
  <title
     id="title6">x</title>
  <path
     class="cls-1"
     d="M114.80369,103.81029a10.7983,10.7983,0,0,0-6.08219,1.82719L85.8563,82.65512a28.84085,28.84085,0,0,0,4.63409-7.48468q.31944-.75332.59427-1.52875a28.465,28.465,0,0,0,1.56717-7.364h10.49429a11.11305,11.11305,0,1,0,0-4.55535H92.65183a28.48951,28.48951,0,0,0-1.56633-7.36294q-.27651-.77582-.59511-1.53021a28.83562,28.83562,0,0,0-4.631-7.48208l22.98182-22.86482A11.10744,11.10744,0,0,0,122.78263,5.33709a11.11312,11.11312,0,0,0-18.97238,7.85926,10.79787,10.79787,0,0,0,1.82719,6.08211L82.652,42.1468a28.6716,28.6716,0,0,0-16.37431-6.80326V24.85392a11.11309,11.11309,0,1,0-4.55542,0V35.34408a28.69016,28.69016,0,0,0-16.37064,6.80119L22.48224,19.15886A11.10744,11.10744,0,0,0,5.33705,5.21741a11.11841,11.11841,0,0,0,0,15.71852,11.01619,11.01619,0,0,0,7.85926,3.25386A10.79889,10.79889,0,0,0,19.2785,22.3626l22.865,22.9822a28.82986,28.82986,0,0,0-4.634,7.48438q-.31944.75447-.59427,1.52952a28.4685,28.4685,0,0,0-1.56717,7.36363H24.85389a11.11313,11.11313,0,1,0,0,4.55535H35.3481a28.49228,28.49228,0,0,0,1.56633,7.364c.18434.51729.383,1.02822.59679,1.52875a28.83741,28.83741,0,0,0,4.63019,7.48178L19.15882,105.5178a11.09964,11.09964,0,1,0,5.03093,9.28593,10.7983,10.7983,0,0,0-1.82719-6.08219l22.986-22.8688A28.66573,28.66573,0,0,0,61.72229,92.656v10.49016a11.11309,11.11309,0,1,0,4.55542,0V92.65554a28.68263,28.68263,0,0,0,16.37056-6.80081l22.86949,22.98649a11.09964,11.09964,0,1,0,9.28593-5.03093ZM110.29288,8.54083a6.58654,6.58654,0,0,1,9.311,0,6.617,6.617,0,0,1,0,9.311,6.58387,6.58387,0,0,1-9.311-9.311ZM17.85183,17.70708a6.58664,6.58664,0,1,1,1.9272-4.65544A6.57137,6.57137,0,0,1,17.85183,17.70708Zm-.1447,101.75216a6.58673,6.58673,0,0,1-9.311,0,6.61706,6.61706,0,0,1,0-9.311,6.58389,6.58389,0,1,1,9.311,9.311Zm101.75208.1447a6.61706,6.61706,0,0,1-9.311,0,6.5828,6.5828,0,1,1,9.311,0Z"
     id="path8"
     style="fill:#c9171a;fill-opacity:1;stroke:#fbfbfb;stroke-opacity:1;stroke-width:12;stroke-miterlimit:4;stroke-dasharray:none;paint-order:stroke fill markers"
     inkscape:export-xdpi="361.39999"
     inkscape:export-ydpi="361.39999" />
  <path
     style="opacity:1;fill:#ffffff;fill-opacity:1;fill-rule:nonzero;stroke:none;stroke-width:1.62711859;stroke-linecap:round;stroke-linejoin:round;stroke-miterlimit:4;stroke-dasharray:none;stroke-dashoffset:0;stroke-opacity:1;paint-order:stroke fill markers"
     d="M 11.33197,19.243347 C 10.013712,18.892827 7.9157867,17.025959 7.288655,15.645345 6.6402804,14.217965 6.6425716,11.894192 7.2937674,10.460389 9.3939703,5.8361626 15.618681,5.2995292 18.563055,9.4888623 c 0.692076,0.9847037 0.833003,1.4694437 0.918304,3.1586457 0.09002,1.782684 0.01895,2.14575 -0.66661,3.40535 -0.906314,1.665197 -2.043393,2.603059 -3.795196,3.130274 -1.440149,0.433421 -2.23518,0.446403 -3.687583,0.06021 z"
     id="path4552"
     inkscape:connector-curvature="0" />
  <path
     style="opacity:1;fill:#ffffff;fill-opacity:1;fill-rule:nonzero;stroke:none;stroke-width:1.62711859;stroke-linecap:round;stroke-linejoin:round;stroke-miterlimit:4;stroke-dasharray:none;stroke-dashoffset:0;stroke-opacity:1;paint-order:stroke fill markers"
     d="m 111.96275,18.811324 c -4.58426,-2.381558 -4.58426,-8.8527503 0,-11.234309 4.34697,-2.2582898 9.34935,0.7471725 9.34935,5.617155 0,4.869982 -5.00238,7.875444 -9.34935,5.617154 z"
     id="path4554"
     inkscape:connector-curvature="0" />
  <path
     style="opacity:1;fill:#ffffff;fill-opacity:1;fill-rule:nonzero;stroke:none;stroke-width:1.62711859;stroke-linecap:round;stroke-linejoin:round;stroke-miterlimit:4;stroke-dasharray:none;stroke-dashoffset:0;stroke-opacity:1;paint-order:stroke fill markers"
     d="m 112.13517,120.75245 c -2.30789,-1.0587 -3.6451,-3.1822 -3.65506,-5.80428 -0.0104,-2.73006 1.35132,-4.81436 3.84652,-5.88777 4.91372,-2.11383 10.08242,2.51124 8.62473,7.71761 -0.42846,1.53029 -1.95581,3.32679 -3.37733,3.97246 -1.45041,0.6588 -4.00501,0.65973 -5.43886,0.002 z"
     id="path4556"
     inkscape:connector-curvature="0" />
  <path
     style="opacity:1;fill:#ffffff;fill-opacity:1;fill-rule:nonzero;stroke:none;stroke-width:1.62711859;stroke-linecap:round;stroke-linejoin:round;stroke-miterlimit:4;stroke-dasharray:none;stroke-dashoffset:0;stroke-opacity:1;paint-order:stroke fill markers"
     d="m 10.438282,120.62432 c -2.7785344,-1.2939 -4.3121965,-4.2785 -3.6709491,-7.14389 1.3788233,-6.16123 9.5775371,-6.94633 12.1933531,-1.16762 1.047576,2.31425 0.603579,4.71815 -1.252783,6.78288 -1.939611,2.15731 -4.68149,2.73386 -7.269621,1.52863 z"
     id="path4558"
     inkscape:connector-curvature="0" />
</svg>
